<?xml version="1.0" encoding="UTF-8"?>
<svg  xmlns="http://www.w3.org/2000/svg" version="1.1" viewBox="-211 374 189 45">
<style> 
  path {
    fill: #596624;
  }
</style>
    <path d="M-206.3 389.6c-3.9-3.7-3.6-6.9-2.2-9.4.4-.8 1-1 1.4-1.7.6-.8.6-1.5.2-1.9-.6-.5-2 .1-2.8 1.5-4.2 7.6 3.4 11.5 3.4 11.5zm55.2 2c1.9-.3 4.1-1 6.1-1.8v.1c.3.8.8 1.1 1.7 1.5 1.7.6 4.6-.1 6.4-1.5 0 0 .1-.1.2-.3l-.3.1c.2-.1.6-.5.6-.6l.1-.1c0-.1 0-.1-.1-.1-.4.2-1 .5-1.3.6 1.1-.5 1.7-1.2 1.9-1.5.1-.2.2-.4 0-.2-.4.4-1.4 1.1-3.1 1.7-1.6.6-3.1.4-3.3-1 1.3-.6 2.4-1.2 3.1-1.6 1.8-1.1 3.4-2.6 3.3-4.2 0-.5-.4-1-1.3-1.1-1.5-.3-3.3.8-5 2.3-1.3 1-2.4 2.8-2.7 4.4-.9.3-1.9.6-2.9.8.4-.5.7-1 1.1-1.6.3-.5 1.1-1.7 2-3.1l.9-1.5 3.6-5.9c.2-.4.3-.6.3-.9 0-.2-.2-1.7-.2-2 0-.3 0-.5-.5.2-.3.5-1.7 2.7-3.4 5.3 0 0-1.2 1.9-1.9 2.9-.1-.3-.3-.5-.6-.6-1.7-.5-4.4.9-5.6 2.1-1.5 1.4-3.6 4-2.9 6 .3 1.8 2.2 1.8 3.8 1.6zm11.8-7.6c.7-.4 1.2-.5 1.2-.2-.1.8-2.2 2.2-3.9 3.2.6-1.7 2.1-2.6 2.7-3zm-12.2 2.1c.5-.6 3.5-3.1 4.2-1.5 0 0-1.3 2.1-2.8 4.2-.4.5-.8 1-2 .8-.5-.1-.7-.4-.7-.9.1-.7.4-1.5 1.3-2.6zm42.2 13c-.5-3.4-5.1-2.2-7.2-.9h-.1c0-.3-.4-.9-1-.9-1.6 0-2.9.8-3.1 1.1-.2.3 0 .6.4.6h.7c-1.2 3.1-9.4 18.6-9.8 19.3-.2.3-.3.5-.3.7.2 0 .6-.1.9-.2l.1-.1c.1-.1.2-.1.2-.2.2-.3 1.3-1.9 1.6-2.3h.1c-.1.3-.3.9-.5 1.3-.1.1-.1.3-.1.4l.5-.7.1.2s0 .1.1 0c.3-.2.5-.4.7-.9.3-.5 2.9-5.2 5.1-9 .1.7.4 1.4 1.2 1.7 1.5.6 3.4-.3 4.7-1.1 1.6-1.1 2.9-2.6 4-4.2 1.2-1.4 2-3 1.7-4.8zm-4.1 2.8c-.6 1.6-2.5 4.2-4.1 4.8-2.4.8-1.5-2-.9-3 1-1.7 2.5-4.2 4.4-4.6 1.4-.3 1 1.8.6 2.8zm91.3-12h-10.8c2.9-5.3 5.7-10.2 5.9-10.6.3-.6.3-.5.2-1l-.5-1.7c-.2-.8-.3-.5-.7.2-.3.5-4.2 7-7.9 13.1-8.9.1-18.8.2-29.5.3.2-.3.8-1.5 1.2-2.4.5-1 1-2.1 1.1-2.4v-.1c-.1 0-.2.1-.3.3-.1.1-.7 1.1-1.3 2.1-.6.9-1.2 1.9-1.5 2.2l1.2-2.4c.4-.8.7-1.6.9-1.9l.2-.6s-.2.3-.4.7c.2-.4.4-1.2.4-1.2l-.1.1-.2.2c.3-1 .5-1.9.5-1.9s0-.1-.1-.1c0 0-.6 1.5-2.1 4.2-1 1.7-1.7 3-1.8 3.3-11 .1-22.6.2-34.6.3-3.9 0-6.7.1-7.5.2l6.2.3c-2.9.1-13.2.3-13.7.3h48.9c-.8 1.4-2.1 3.8-3.4 6.1-.2-.3-.4-.4-.7-.5-2.3-.7-5.7 1.2-7.2 2.8-.9.9-2 2.3-2.6 3.5-.4.6-1.2 2.1-2.5 2.8-1 .6-2.2.5-2.2-.9 0-1.1 2.2-3.8 3.2-5.7.5-1 .8-1.5.8-1.8 0-.4-.2-.6-.5-.8-.4-.3-1-.4-1.7-.2s-3.1 1.5-5.6 3.9c-1 .9-2 1.9-2.8 2.8.9-1.5 1.9-3.3 2.4-4.6.2-.6.4-.9.1-1.3-.2-.3-.8-.5-1.2-.7-.3-.1-.5 0-.7.1-.1.1-.3.3-.9 1-.8 1-2.2 2.3-3.4 3.3.6-1.6.6-3.1-.8-4.1-.9-.7-2.5-.5-3.5-.3-2 .5-3.7 1.9-5 3.3-1.7 1.9-5 6.6-1.6 8.6 2.6 1.5 6.1-.8 7.7-2.6.6-.7 1.5-1.8 2.3-3 1.3-.9 2.6-1.9 3.5-2.8-1.2 2.6-2.7 5.8-2.8 6.3-.2.5-.6 1.7-.6 2.2 0 .6.8.7 1.6.7s1-.3 1.3-.7c.4-.5.9-1.5 4.6-5.2.8-.8 1.5-1.5 2.3-2.1-.7.9-1.4 2-1.6 2.8-1.2 3.9.7 4.6 1.6 4.6.9 0 3-.9 5-3.4-.1.7 0 1.5.3 2.1 1 2.2 3.5 2.2 5.6 1.9 2.1-.3 4.6-1.2 6.8-2.2.1.2.1.3.2.4.7 1.2 1.5 1.8 3.4 1.8s3.7-.8 5.7-2.6c1.2-1 2.3-2.4 3.8-4 .6-.7 1.2-1.4 1.9-2.2-.9 1.6-2.1 3.8-2.7 5.1-.9 2.3-1.4 3.9.5 3.9.6 0 .9-.1 1.1-.3.7-.7 1.5-1.7 2.6-2.7l2.8-2.8c-.3.5-.5.9-.7 1.3-.6 1.8-.6 3-.3 3.6.3.5 1.1 1.1 2.5.4.9-.4 2.8-1.6 5-3.8-.8 1.8-1.2 3.2-1.2 4.9 0 3.3 1.9 3.8 3.8 3.8 3.5 0 6.5-2.6 7.2-3.3.5-.4 1.2-1.4 1.5-1.9.1-.2 0-.1-.1 0-1.2 1.4-2.5 2.2-2.8 2.4.1-.1.3-.3.6-.5.3-.3.5-.4.6-.5l-.4.2-.4.2c.2-.2 1.1-.9 1.8-1.8.4-.5.7-1 1-1.3h-.1c-2.1 2.3-4.9 4.9-7.7 4.9-1.6 0-1.9-1.9-1-4.9.9-2.8 2.9-6.7 5.5-11.4l2.7-4.8h9.4s.4.1 1-.3.9-.8 1.2-1c.4 0 .1-.2.1-.2zm-78.8 12.1c-.8 1.7-2.2 3.8-4 4.6-2.4 1-1.3-2.1-.8-3.2.8-1.6 2.3-3.2 4.3-4 1.6-.7 1 1.4.5 2.6zm21.1 5c-.8-.5-.4-2.8.8-4.4 1.5-2 3.5-3.4 4.5-3.3.8.1.8 1.1.8 1.1s-1.7 2.9-3 4.7c-1.3 1.6-2.3 2.4-3.1 1.9zm38.5-7.9l-.3.5c-2.6 4.1-6.5 7.8-7.3 7.4-.9-.5 0-2.6.4-3.3.4-.7 3.6-5.8 3.7-5.9.1-.2.5-.9.2-1.2 0 0-.1-.2-.8-.6-.7-.4-1.2-.4-1.5-.2-.3.2-1.1 1.1-2.7 2.7-1.3 1.3-2.8 2.7-4.2 4.1.9-1.4 2.2-3.4 2.6-4.1.5-.8.5-1.2.1-1.5s-1-.5-1.5-.5c-.3 0-.6 0-.8.2-.9.8-3 3.3-4.4 4.9-1.6 1.8-3.3 3.3-5.1 4.5-1 .7-2.2 1.2-3.2 1-.7-.1-1.1-.5-1.1-1.3 1.7-.9 3.1-1.7 3.9-2.3 1.5-1 4.1-2.9 3.8-5.1-.1-.5-.3-1.4-1.6-1.6-2-.4-4.3 1.1-6.4 3-1.5 1.3-2.9 3.7-3.3 5.7-1.2.5-2.4.9-3.9 1.1 1.7-2.2 3.3-5.4 4.5-7.7 1.6-3.1 3.4-6.4 4-7.5h29.3c-1.8 3.2-3.5 5.9-4.4 7.7zm-25.4 4.5c1-2.4 3-3.8 3.3-4 .3-.2 1-.4.9 0-.2 1-2.3 2.7-4.2 4zm-59.7 4.8c.8-.7 2.5-2.4 3.1-5.8.5-3-1.2-4.7-1.6-5.1-.4-.3-.9-.2-1.1 0-.4.6-2.3 3.7-7.3 7.6-2.7 2.1-4.8 2.4-5.5 2.4-1.2.1-1.8-1-2-1.6 1.1-.5 2.2-1.1 3.3-1.8 2.5-1.5 4-3 4.2-3.5.6-1.2.2-3.2-1.7-3.5-1.1-.2-2.6.2-4.1 1.2-1.5 1-3.4 3-4.2 4.1-.6.7-1.4 2.1-1.5 3.6-1.6.6-3 1-4 1s-.7-1.1.1-2.3c1.3-2.2 3.1-4.1 5.5-6.9.3-.4.1-.9-.3-1.2-.2-.2-.6-.2-1-.2-1.1 0-2.1.8-2.9 1.3-.8.5-.9.7-2.3.7 0 0 .3-.4.2-.9s-.5-1-1.7-1-2.7 1.5-2.7 2.3c0 .5 0 .8.6 1.3-1.4 1.9-3 3.6-4.8 5-.6.5-1.6 1.2-2.4 1.7-1 .6-2.5.9-3 .5s-.2-1.6 1.1-3.4c.9-1.2 2.8-2.8 3.6-3.5.8-.7 1.8-1.4 1.9-1.8.1-.3.2-.8 0-1.1-.4-.6-1.4-.4-1.9-.3-.9.2-1.3.6-1.8.9-.7.3-1.8.4-2.3.2.6-.4.6-1.5-.3-1.5-.9-.1-2.1.3-3.1 1-.6.4-1.1.9-1.1 1.8 0 .2.1.5.4.8-.3.3-.8.7-1.5 1.3-1.1 1-2.9 2.5-4.1 3.2 0 0 1.9-2.4 2.4-4.6.3-1.3.1-3.6-2.6-3.9-3-.3-4.9 1.7-9.7 5.7-4.6 3.9-15.4 11.4-21.2 7.5-5.8-4-.6-13.1 7.5-20.9 8.1-7.8 16.6-11.1 20.5-9.7 3.9 1.4 3.6 6.9-3.2 10.8-8.7 5.1-18.1 3.6-18.1 3.6s4.9 1.5 10.6.4c6.8-1.3 14.7-5.3 15.7-11.3 1-6-5.9-10.2-20.7-1.2-14.7 9-26.4 25.7-15.5 31.8 7.6 4.3 19.2-4.4 24-8.2-.4 1.6-.2 3.2 1.4 4.1.6.4 1.3.5 2 .5 3.9-.1 7.4-2.9 9.3-4.4 2-1.5 5.1-4.1 5.1-4.1h.2c.3 0 1 0 1.6-.1-1.2 1.2-2.5 2.6-3.4 3.7-2 2.5-2.2 4-.2 4.8.5.2.9.3 2.1.3 2.5 0 5.2-1.5 7.1-2.9 2.3-1.7 4.4-3.9 6.1-6.2l.9.1h1c-.6.7-1.6 1.8-2.2 2.7-1 1.3-1.8 2.4-1.8 3.5s.4 2.6 2.7 2.6c1.3 0 3.4-.8 4.8-1.4.4-.2.9-.4 1.5-.6.2.6.9 1.6 2.8 2.2 2.7.8 6.6-.9 9.4-3.2 2.2-1.8 4.2-4.3 5.1-5.4.4 1 .8 3.1-1 5.4-1.4 1.9-2 1.1-2.2.9-.2-.2-.8-.2-1.1.3-.4.8.2 2.1 1.8 2.1s2.9-.9 3.5-1.4zm-14.1-4.8c.8-1.7 2.1-2.8 3.1-3.5.9-.6 1.2-.5 1.3-.3.1.4.4 1.3-2 2.7l-2.6 1.5c.1-.1.1-.2.2-.4zm-33.7 0c-.8 1.3-1.8 2.4-2.8 3.1-1.1.6-2 .4-2.3-.6-.4-1.3.5-3 1.1-3.9.6-.9 1.5-2.3 3-3 1.6-.7 2.3 0 2.4.5.1 1-.7 2.7-1.4 3.9z"></path>
</svg>
