<svg xml:space="preserve" style="max-height: 500px" viewBox="280.7649043869516 371.52 1360.6299212598424 339.12" y="0px" x="0px" xmlns:xlink="http://www.w3.org/1999/xlink" xmlns="http://www.w3.org/2000/svg" id="Layer_1" version="1.1" width="1360.6299212598424" height="339.12">
<style type="text/css">
path {
fill: #596624;
}
	.st0{fill:#FFFFFF;}
	.st1{fill:url(#SVGID_1_);}
	.st2{fill:#FF009C;}
	.st3{fill:url(#SVGID_2_);}
</style>
<g>
	<path d="M285,673.28V374.32h49.7v298.96H285z M378.05,430.37h51.94l-45.22,121.45l45.22,121.45h-51.94L334.7,551.83L378.05,430.37z"/>
	<path d="M538.2,426.64c10.96,0,19.3,2.74,25.03,8.22c5.73,5.48,9.65,13.64,11.77,24.48c2.11,10.84,3.18,25.47,3.18,43.91v13.45&#10;&#9;&#9;h-50.08v-17.94c0-6.22-0.5-11.21-1.49-14.95c-1-3.74-2.68-6.54-5.05-8.41c-2.37-1.87-5.55-2.8-9.53-2.8&#10;&#9;&#9;c-4.24,0-7.79,1.25-10.65,3.74c-2.87,2.49-5.11,5.92-6.72,10.28c-1.62,4.36-2.43,9.53-2.43,15.51v171.15h-49.7v-242.9h49.7v28.03&#10;&#9;&#9;c3.98-8.72,9.72-16.19,17.19-22.42C516.9,429.76,526.48,426.64,538.2,426.64z"/>
	<path d="M589.2,512.59c0-29.9,5.66-51.69,17-65.4c11.33-13.7,28.46-20.55,51.38-20.55c22.92,0,40.04,6.85,51.38,20.55&#10;&#9;&#9;c11.33,13.7,17,35.5,17,65.4v78.47c0,29.9-5.67,51.7-17,65.4c-11.34,13.7-28.46,20.55-51.38,20.55c-22.92,0-40.05-6.85-51.38-20.55&#10;&#9;&#9;c-11.34-13.7-17-35.5-17-65.4V512.59z M638.9,592.93c0,0.99,0,1.99,0,2.99c0,1,0.12,1.87,0.37,2.62c0.25,12.7,1.68,21.3,4.3,25.78&#10;&#9;&#9;c2.62,4.48,7.29,6.73,14.01,6.73c6.72,0,11.4-2.24,14.01-6.73c2.62-4.48,4.05-13.08,4.3-25.78c0.25-0.75,0.37-1.62,0.37-2.62&#10;&#9;&#9;c0-0.99,0-1.99,0-2.99v-82.22v-2.99c-0.25-13.45-1.75-22.67-4.48-27.65c-2.74-4.98-7.48-7.48-14.2-7.48&#10;&#9;&#9;c-6.73,0-11.4,2.24-14.01,6.73c-2.62,4.48-4.05,13.08-4.3,25.79c-0.25,0.75-0.37,1.62-0.37,2.62c0,1,0,2,0,2.99V592.93z"/>
	<path d="M1145.09,426.29c11.21,0,19.93,2.74,26.16,8.22c6.22,5.48,10.52,13.64,12.89,24.48c2.36,10.84,3.55,25.6,3.55,44.28v169.66&#10;&#9;&#9;H1138V499.16c0-9.72-1.44-16.63-4.3-20.74c-2.87-4.11-7.42-6.17-13.64-6.17h-1.87c-3.99,0.5-7.23,1.75-9.72,3.74&#10;&#9;&#9;c-2.49,2-4.43,4.92-5.79,8.78c-1.37,3.87-2.06,8.78-2.06,14.76v173.4h-49.7v-242.9h49.7v27.28c3.74-8.47,9.21-15.75,16.44-21.86&#10;&#9;&#9;C1124.29,429.34,1133.63,426.29,1145.09,426.29z"/>
	<path d="M1339.8,525.32h-49.7v-14.95c0-10.21-0.62-18-1.87-23.36c-1.25-5.35-3.18-9.16-5.8-11.4c-2.61-2.24-6.29-3.36-11.02-3.36&#10;&#9;&#9;c-6.73,0-11.4,2.24-14.01,6.73c-2.62,4.48-4.06,13.08-4.3,25.79c-0.25,0.75-0.38,1.62-0.38,2.62c0,1,0,2,0,2.99v82.22&#10;&#9;&#9;c0,0.99,0,1.99,0,2.99c0,1,0.13,1.87,0.38,2.62c0.24,12.7,1.68,21.3,4.3,25.78c2.61,4.48,7.28,6.73,14.01,6.73&#10;&#9;&#9;c6.97,0,11.77-2.43,14.39-7.29c2.62-4.86,4.05-14.14,4.3-27.84v-2.99v-14.95h49.7v13.08c0,19.93-2.49,36.25-7.47,48.95&#10;&#9;&#9;c-4.99,12.71-12.52,22.05-22.61,28.03c-10.09,5.98-22.86,8.96-38.3,8.96c-22.92,0-40.05-6.91-51.38-20.74&#10;&#9;&#9;c-11.34-13.83-17-35.56-17-65.21v-78.47c0-29.64,5.66-51.38,17-65.21c11.33-13.83,28.46-20.74,51.38-20.74&#10;&#9;&#9;c15.44,0,28.22,2.99,38.3,8.97c10.09,5.98,17.62,15.32,22.61,28.03c4.98,12.71,7.47,29.03,7.47,48.95V525.32z"/>
	<path d="M1450.79,426.29c10.96,0,19.3,2.74,25.04,8.22c5.73,5.48,9.66,13.64,11.77,24.48c2.12,10.84,3.17,25.47,3.17,43.91v13.45&#10;&#9;&#9;h-50.08v-17.94c0-6.22-0.5-11.21-1.49-14.95c-0.99-3.74-2.68-6.54-5.05-8.41c-2.37-1.87-5.54-2.8-9.53-2.8&#10;&#9;&#9;c-4.24,0-7.79,1.25-10.65,3.74c-2.87,2.49-5.11,5.92-6.73,10.28c-1.62,4.36-2.42,9.53-2.42,15.51v171.15h-49.7v-242.9h49.7v28.03&#10;&#9;&#9;c3.98-8.72,9.71-16.19,17.19-22.42C1429.49,429.41,1439.08,426.29,1450.79,426.29z"/>
	<path d="M1565.87,609.03l19.43-179h49.7l-35.5,242.9h-67.64l-35.5-242.9h49.7L1565.87,609.03z"/>
	<g>
		<path d="M887.97,401.48c-84,0-152.1,68.1-152.1,152.1s68.1,152.1,152.1,152.1s152.1-68.1,152.1-152.1S971.97,401.48,887.97,401.48&#10;&#9;&#9;&#9;z M887.97,651.36c-54,0-97.78-43.78-97.78-97.78s43.78-97.78,97.78-97.78c54,0,97.78,43.78,97.78,97.78&#10;&#9;&#9;&#9;S941.97,651.36,887.97,651.36z"/>
		<path d="M887.97,461.23c-51,0-92.35,41.34-92.35,92.35s41.34,92.35,92.35,92.35s92.35-41.34,92.35-92.35&#10;&#9;&#9;&#9;S938.97,461.23,887.97,461.23z M887.97,597.04c-24,0-43.46-19.46-43.46-43.46s19.46-43.46,43.46-43.46s43.46,19.46,43.46,43.46&#10;&#9;&#9;&#9;S911.97,597.04,887.97,597.04z"/>
	</g>
</g>
</svg>
