<?xml version="1.0" encoding="UTF-8"?>
<svg id="Layer_1" data-name="Layer 1" xmlns="http://www.w3.org/2000/svg" version="1.1" viewBox="0 0 515.6 400.7">
  <defs>
    <style>
      .cls-1 {
        fill: #DAF65E;
        stroke-width: 0px;
      }
    </style>
  </defs>
  <g>
    <path class="cls-1" d="M41,244.4c-.5-14.1-3.1-19.3-9.9-19.3s-9.7,7-9.7,30.8,2.1,27.8,9.4,27.8,9-3.9,10.2-17.3l15.1,1.2c-.7,9.5-2.1,15.3-5.1,20.3-4.7,7.8-11.2,11.3-20.7,11.3-18.5,0-27.8-14.9-27.8-44.6s9.9-45,28.3-45,18.3,4.8,22.2,13.7c2.1,4.8,3.1,10.3,3.8,19.8l-15.8,1.3Z"/>
    <path class="cls-1" d="M96.8,245.2v-34.3h17.9v87h-17.9v-37.4h-13.3v37.4h-17.9v-87h17.9v34.3h13.3Z"/>
    <path class="cls-1" d="M159.5,210.9l19.7,87h-18l-3.5-18.8h-17.2l-3.5,18.8h-15.9l20-87h18.5ZM150.9,241.8c-1.2-5.2-1.4-8-1.8-14.6-.8,5.7-1.3,9.7-2.1,13.8l-4.7,24h13.4l-4.8-23.2Z"/>
    <path class="cls-1" d="M175.9,210.9h18.5l7.2,42.3c1.2,8.1,2.2,17.5,2.7,23.5.7-8.6,1.6-16.2,2.9-23.5l7.4-42.3h15.4l-18.1,87h-18.3l-17.7-87Z"/>
    <path class="cls-1" d="M264.9,210.9l19.7,87h-18l-3.5-18.8h-17.2l-3.5,18.8h-15.9l20-87h18.5ZM256.3,241.8c-1.2-5.2-1.4-8-1.8-14.6-.8,5.7-1.3,9.7-2.1,13.8l-4.7,24h13.4l-4.8-23.2Z"/>
    <path class="cls-1" d="M289.9,210.9h17.5l14.2,39.9c1.2,3.5,2.2,7.8,4.2,17.1-.5-7.2-1.3-20.5-1.3-26.3v-30.7h14.5v87h-14.5l-16.4-44.5c-1.8-4.8-3.3-10-5.1-17.9.7,8.3,1.4,22.3,1.4,25.7v36.7h-14.5v-87Z"/>
    <path class="cls-1" d="M352.2,210.9h17.5l14.2,39.9c1.2,3.5,2.2,7.8,4.2,17.1-.5-7.2-1.3-20.5-1.3-26.3v-30.7h14.5v87h-14.5l-16.4-44.5c-1.8-4.8-3.3-10-5.1-17.9.7,8.3,1.4,22.3,1.4,25.7v36.7h-14.5v-87Z"/>
    <path class="cls-1" d="M432.2,246.3h21.1v14.5h-21.1v21.8h27.5v15.3h-45.4v-87h45.4v15.3h-27.5v20.2Z"/>
    <path class="cls-1" d="M500.8,235.4c-1.7-6.9-4.8-10.2-9.8-10.2s-7.6,3.3-7.6,8.5,1,5.5,3.3,7.2,2.2,1.7,12.1,6.4c11.9,5.5,16.7,12.7,16.7,24.4,0,16.8-10.2,27.5-26.3,27.5s-22.7-7.6-25.6-23.5l14.2-5c2.1,9.4,5.2,12.8,11.5,12.8s8.7-3.5,8.7-9.1-1-5.3-2.7-6.9q-1.7-1.6-12-6.7c-11.3-5.6-16.6-13.3-16.6-24.8s10.2-26.5,23.7-26.5,19.7,6.5,23.7,20.1l-13.4,5.7Z"/>
    <path class="cls-1" d="M34,312c6.1,0,11.2.9,14.9,2.7,6.7,3.4,10.6,11.3,10.6,21.5,0,18-11.1,30-27.8,30h-8.9l-5.5,32.7H0l14.6-87h19.4ZM31.3,351.9c2.9,0,5.6-1,7-2.9,2.1-2.7,3.5-8,3.5-13.2s-2.5-9.5-8.1-9.5h-4.3l-4.3,25.6h6.1Z"/>
    <path class="cls-1" d="M93.4,312c15.9,0,23.6,7.6,23.6,23.5s-2.3,15.4-6.7,20.2c-2.1,2.5-4,3.8-8.3,5.6l7,37.7h-19l-4.2-34.7h-5.9l-5.9,34.7h-17.3l14.6-87h22ZM86.6,350.6c5.1,0,8.2-1.6,10.3-5.1,1.6-2.5,2.5-6.7,2.5-10.4,0-6.3-3.1-9.4-9.1-9.4h-3.9l-4.2,24.9h4.4Z"/>
    <path class="cls-1" d="M150.1,312l-14.5,87h-17.3l14.6-87h17.2Z"/>
    <path class="cls-1" d="M189.4,312l-10,59.9c-2.1,12.3-4.4,18.5-8.5,22.7-4.2,4-9.8,6.1-17.3,6.1s-6.4-.4-10.7-1.7l2.5-15c2.9.9,4.6,1.3,6.1,1.3,2.7,0,5.6-1.4,7.2-3.4,1.8-2.5,2.5-4.4,3.7-11.5l9.8-58.4h17.3Z"/>
    <path class="cls-1" d="M229.6,336.9c-1.4-7.8-4.2-11.2-8.9-11.2s-7.4,3.7-7.4,8.5,2.5,7.6,11.3,13.3c13,8.6,17,14.1,17,24.3,0,17-11.2,28.8-27.1,28.8s-23.9-9.1-25.4-26.1l15.3-3.1c.5,4.8,1,6.8,2.6,9.1,1.7,2.9,5,4.7,8.5,4.7,5.2,0,8.6-3.9,8.6-10s-2-7.3-8.7-11.7c-9.4-6.3-11.3-7.7-14.1-10.8-3.3-3.7-5-8.6-5-14.2,0-8,3.4-16.6,8.6-21.7,3.9-3.9,10-6.4,16-6.4s13,2.7,16.8,6.7c3.1,3.3,4.7,6.8,6.9,14.7l-15,5.2Z"/>
  </g>
  <g>
    <path class="cls-1" d="M235.9,8.6c9.1,0,13.7,1,17.9,3.9,7.2,5.1,10.4,14,10.4,28.3,0,22.3-6.8,41.1-17.6,49.2-5.3,4-11.5,5.6-21.3,5.6h-20.7l14.6-87h16.7ZM227.9,81.2c6.3,0,10.6-3.8,13.4-11.7,3.3-8.9,5.1-20.2,5.1-30.7s-2.7-16-9.5-16h-2.9l-9.8,58.4h3.7Z"/>
    <path class="cls-1" d="M326.3,8.6l-2.5,14.9h-27.7l-3.4,20.2h22.6l-2.3,14.3h-22.7l-3.7,22.3h28.6l-2.6,15.3h-45.9l14.6-87h45Z"/>
    <path class="cls-1" d="M209.8,109.7h24.5l6.7,36.7c1.3,7.3,2.2,15.7,2.7,24.9.5-7.8,2-18.4,3.7-26.7l7.4-34.8h24v87h-17.1v-49.6c0-6.1.1-7.6.9-26.3l-1,7.3c-.4,3.4-.9,6.7-1.4,10-.5,3.8-1.2,7.4-1.3,8.2l-10.6,50.3h-11.2l-10.2-51.1c-1-5.2-1.7-10.3-3.4-24.8,0,1.6.3,10.7.5,24.3v51.7h-14.2v-87Z"/>
    <path class="cls-1" d="M323.7,109.7l19.7,87h-18l-3.5-18.8h-17.2l-3.5,18.8h-15.9l20-87h18.5ZM315.1,140.6c-1.2-5.2-1.4-8-1.8-14.6-.8,5.7-1.3,9.7-2.1,13.8l-4.7,24h13.4l-4.8-23.2Z"/>
    <path class="cls-1" d="M348.7,109.7h22.4c11.7,0,15.9,1.2,20.2,5.6,4.8,5.1,7.2,11.7,7.2,20.2s-3.3,18.4-11.3,23.5l13.2,37.7h-18.8l-9.9-34.2h-5.5v34.2h-17.5v-87ZM371.1,148.2c6.5,0,9.7-4.2,9.7-12.7s-3.1-12.1-9.7-12.1h-5v24.8h5Z"/>
    <path class="cls-1" d="M444.2,143.3c-.5-14.1-3.1-19.3-9.9-19.3s-9.7,7-9.7,30.8,2.1,27.8,9.4,27.8,9-3.9,10.2-17.3l15.1,1.2c-.7,9.5-2.1,15.3-5.1,20.3-4.7,7.8-11.2,11.3-20.7,11.3-18.5,0-27.8-14.9-27.8-44.6s9.9-45,28.3-45,18.3,4.8,22.2,13.7c2.1,4.8,3.1,10.3,3.8,19.8l-15.8,1.3Z"/>
  </g>
  <path class="cls-1" d="M39.1,47.7c1.9-4.2,3.8-8.1,5.6-12.3,3-7,6.8-13.4,12.1-18.9,6.9-7,15.2-11.4,24.6-14C89.7.2,98.1-.4,106.6.1c4.3.2,8.5,1.1,12.8,1.7,4.1.6,8.2,1.4,12.3,2.1.5,0,1.1,0,1.6.2,2,.5,2.9,1.9,2.5,3.9-.2,1-.8,2.3-.5,3,.5,1,1.7,1.7,2.7,2.3,5.3,3.2,10.2,7,14.8,11.2,5.1,4.6,9.1,9.8,12.3,15.8,3.1,5.7,4.2,11.9,5.1,18.2.8,5.7,1.4,11.5.8,17.3-.2,1.9-.4,3.8-.6,5.7s.2,4.5,1.5,6.4c2.5,3.5,4.9,7.1,7.1,10.8,3.1,5.2,4.6,10.8,5,16.9.1,2.1-.1,4-1.1,5.9-1.5,2.9-3.7,4.5-7.1,4.4-.5,0-1.1,0-1.6,0-.1,0-.3,0-.4,0-3.8-.3-5.2.3-5,5.1,0,2.1.1,4.3,0,6.5,0,.5-1,2.2-1.1,4.2-.2,2.4.5,5.3.3,6.6-.2,1.5-1,3-1.8,4.4-1.6,2.7-2.6,5.5-3.2,8.6-1.4,8-6.1,13.3-13.9,15.8-3.7,1.2-7.6,1.7-11.4,2.3-5.1.8-10.3.4-15.4.7s-8.7,1.4-12.5,3.6c-5,2.9-10,5.9-15,8.8-1.3.8-2.5,1.6-3.8,2.3-2.2,1.1-3.4.8-5.1-.9-1-1.1-2-2.2-2.9-3.4-10.1-13.1-20.2-26.2-30.3-39.3-4.2-5.4-8.4-10.9-12.6-16.3-4.4-6.4-8.1-13.1-9.6-15.1-1.4-2.5-2.5-3.9-.7-6.4.9-1.3,2-2.5,3-3.8.8-1.1,1.7-2.1,2.5-3.2.9-1.3.7-2.5-.2-3.7,0-.1-.2-.2-.3-.3-6-6.4-8.2-16.6-7-24.8,0-.1,2.9-11.2,11.2-29.5Z"/>
</svg>
