<?xml version="1.0" encoding="UTF-8"?>
<svg id="Logo_nrc_" data-name="Logo_nrc&amp;gt;" xmlns="http://www.w3.org/2000/svg" version="1.1" viewBox="0 0 291.7 87">
  <defs>
    <style>
      .cls-1 {
        fill: #596624;
        stroke-width: 0px;
      }
    </style>
  </defs>
  <polygon class="cls-1" points="243.1 .7 265.4 42.8 243.1 84.9 260.3 84.9 291.7 42.8 291.7 42.8 260.3 .7 243.1 .7"/>
  <path class="cls-1" d="M.3,72.6l9.8-2.3V18.1L0,15.6V3.7L31,.1l2.2,1.1v8.3h.9C42.1,3.9,50.4,0,61.5,0s21.8,5.8,21.8,20.8v49.9l7.1,1.9v11.4h-39.4v-11.4l8.1-2V28.9c0-8.1-3.9-10.6-11.9-10.6s-8.9,1.2-12.9,2.7v49.7l8.1,2v11.3H.3v-11.4Z"/>
  <path class="cls-1" d="M99.4,72.6l7.3-1.9V18.1l-10.1-2.5V3.7L127.6.1l2.2,1.1v11.8h.9c4.4-6.9,11.5-12.8,20.9-12.8s3.3.3,4.2.6v21.2c-1.9-.5-4.7-.6-6.9-.6-7.6,0-13.3,1.2-18.1,3.8v44.4l12,2.1v12.3h-43.4v-11.4Z"/>
  <path class="cls-1" d="M158.8,43.4C158.8,13,177.5,0,203.7,0s18.7,1.4,24,3.3v24.2h-15l-2.5-11.9c-1.7-.6-3.4-1.2-8-1.2-11.2,0-18.1,7.7-18.1,27s9.7,27.8,24.3,27.8,16.1-1.9,20.1-3.6v12.8c-5.1,3.6-14,7.7-27.8,7.7-27.9,0-41.9-16.5-41.9-42.7"/>
  <path class="cls-1" d="M.5,121.6l3.7-.3v-30.5l-4.1-.3v-.9l5.5-.5h.4v12.8h0c2.7-1.5,5.8-2.8,9.1-2.8s6.6,1.9,6.6,6v16.1l3.7.3v.9h-9.2v-.9l3.8-.3v-15.6c0-3.4-1.6-5-5.5-5s-6,1.1-8.6,2.5v18.2l3.9.3v.9H.5v-.9Z"/>
  <path class="cls-1" d="M28.2,116.8c0-3.9,2.8-5.8,7.2-6.3l6.8-.8v-3.6c0-4-1.3-5.5-5.4-5.5s-4.8.5-7.1,1.1v-1.2c1.9-.7,4.5-1.4,7.4-1.4,4.7,0,6.8,2.1,6.8,6.6v13.4c0,1.9.9,2.4,2.4,2.4s1.3,0,1.5-.2v.9c-.5.2-1.4.5-2.3.5-1.9,0-3-1-3.1-2.8h0c-1.7,1.8-4.1,2.9-7.1,2.9-4.4,0-7-2.3-7-6ZM42.2,118.7v-7.5l-6.4.5c-4.3.3-5.9,2.1-5.9,4.9s2,5,5.7,5c2.7,0,5.2-1.1,6.6-2.9Z"/>
  <path class="cls-1" d="M49.6,121.6l3.7-.3v-20.2l-3.8-.3v-.9l5.2-.5h.2v2.5h0c2.7-1.5,5.9-2.8,9.1-2.8s6.6,1.9,6.6,6v16.1l3.7.3v.9h-9.2v-.9l3.8-.3v-15.6c0-3.4-1.6-5-5.5-5s-6,1.1-8.6,2.5v18.2l3.9.3v.9h-9.3v-.9h0Z"/>
  <path class="cls-1" d="M76.2,111.4c0-8.4,4.6-12.2,11-12.2s5,.8,6.6,1.4v-9.8l-4.3-.3v-.9l5.8-.5h.2v31.9l3.7.3v.9l-5.1.5-.2-.2v-2.6h0c-2.1,1.6-4.5,2.9-7.8,2.9-5.1,0-9.8-2.7-9.8-11.4ZM93.8,118.7v-16.3c-1.8-1.1-3.6-2-6.7-2-5.3,0-9.1,2.8-9.1,10.7s3.4,10.3,8.4,10.3c2.8,0,5.1-1.3,7.4-2.7Z"/>
  <path class="cls-1" d="M101,111c0-7.7,4.3-11.8,10-11.8s9.2,3.9,9.2,11.1h-17.4c0,7,2.1,11.3,9.3,11.3s5.6-.9,7.3-1.6v1.1c-1.5.9-3.9,1.9-7.5,1.9-8.3-.2-10.9-5.4-10.9-12ZM118.3,108.9c0-5.7-2.7-8.5-7.4-8.5s-7.7,3.3-8.1,8.7l15.5-.2Z"/>
  <path class="cls-1" d="M122.2,121.6l3.9-.3v-30.5l-4.3-.3v-.9l5.8-.5.2.2v32l3.9.3v.9h-9.5v-.9Z"/>
  <path class="cls-1" d="M134,121.6l-.3-5h1.1l.7,3.8c1.4.7,3.3,1.4,5.7,1.4,4.5,0,6.5-1.9,6.5-4.8s-1.4-4.1-4.9-5l-3.1-.9c-3.5-.9-5.6-2.8-5.6-5.9s2.7-5.9,7.5-5.9,5,.4,6.6,1l.2,4.6h-1.1l-.6-3.3c-1.1-.6-2.7-1.1-5.2-1.1s-5.6,1.5-5.6,4.3,1,3.8,4.7,4.8l3.1.9c3.7,1,5.9,2.6,5.9,6.1s-2.7,6.3-8.3,6.3-5.7-.7-7.3-1.3Z"/>
  <path class="cls-1" d="M154.4,120.8v-30l-4.1-.3v-.9l5.5-.5h.2v12.9h.1c2.2-1.5,4.7-2.8,8-2.8,4.9,0,9.5,2.6,9.5,11.2s-4.2,12.5-10.9,12.5c-3.6,0-6.4-1-8.3-2.1ZM171.9,110.7c0-7.9-3.6-10.1-8.1-10.1s-5.5,1.2-7.7,2.6v16.5c1.5,1,3.6,1.9,6.9,1.9,5.4,0,8.9-3,8.9-10.9Z"/>
  <path class="cls-1" d="M175.7,121.6l3.9-.3v-30.5l-4.3-.3v-.9l5.8-.5.2.2v32l3.9.3v.9h-9.5v-.9h0Z"/>
  <path class="cls-1" d="M187.1,116.8c0-3.9,2.8-5.8,7.2-6.3l6.8-.8v-3.6c0-4-1.3-5.5-5.4-5.5s-4.8.5-7.1,1.1v-1.2c1.9-.7,4.5-1.4,7.4-1.4,4.7,0,6.8,2.1,6.8,6.6v13.4c0,1.9.9,2.4,2.4,2.4s1.3,0,1.5-.2v.9c-.5.2-1.4.5-2.3.5-1.9,0-3-1-3.1-2.8h-.1c-1.7,1.8-4.1,2.9-7.1,2.9-4.4,0-7-2.3-7-6ZM201.1,118.7v-7.5l-6.4.5c-4.3.3-5.9,2.1-5.9,4.9s2,5,5.7,5c2.7,0,5.1-1.1,6.6-2.9Z"/>
  <path class="cls-1" d="M208.4,111.4c0-8.4,4.6-12.2,11-12.2s5,.8,6.6,1.4v-9.8l-4.3-.3v-.9l5.8-.5h.2v31.9l3.7.3v.9l-5.1.5-.2-.2v-2.6h-.1c-2.1,1.6-4.5,2.9-7.8,2.9-5.1,0-9.8-2.7-9.8-11.4ZM226,118.7v-16.3c-1.8-1.1-3.6-2-6.7-2-5.3,0-9.1,2.8-9.1,10.7s3.4,10.3,8.4,10.3c2.8,0,5.2-1.3,7.4-2.7Z"/>
</svg>
