<?xml version="1.0" encoding="UTF-8"?>
<svg id="Layer_1" data-name="Layer 1" xmlns="http://www.w3.org/2000/svg" version="1.1" viewBox="0 0 302.1 361.7">
  <defs>
    <style>
      .cls-1 {
        fill: #838969;
        stroke-width: 0px;
      }
    </style>
  </defs>
  <path class="cls-1" d="M282.7,210.9c-.6-10.1-3.1-19.7-8.4-28.4-3.7-6.2-7.9-12.2-12-18.1-2.2-3.1-3.1-7-2.6-10.8.4-3.2.8-6.4,1.1-9.6,1-9.8,0-19.5-1.4-29.1-1.5-10.5-3.5-21-8.7-30.6-5.4-10-12.3-18.8-20.8-26.6-7.8-7-16-13.3-24.9-18.8-1.7-1-3.7-2.2-4.5-3.9-.6-1.3.5-3.4.8-5.1.7-3.4-.8-5.8-4.2-6.5-.9-.2-1.8-.1-2.7-.3-6.9-1.2-13.8-2.4-20.7-3.5-7.1-1.1-14.3-2.5-21.5-2.9-14.3-.8-28.5.2-42.4,4-15.8,4.4-29.8,11.8-41.4,23.6-9,9.2-15.4,20-20.4,31.8-3,7.1-6.3,13.7-9.5,20.7-14,30.8-18.9,49.4-18.9,49.7-2.1,13.9,1.7,31,11.7,41.7.2.2.3.3.4.5,1.6,2,1.8,4.2.3,6.3-1.3,1.9-2.7,3.6-4.2,5.4-1.7,2.1-3.5,4.1-5.1,6.4-2.9,4.2-1.1,6.6,1.2,10.7,2.5,3.4,8.7,14.8,16.1,25.5,7.1,9.1,14.1,18.3,21.2,27.4,17,22.1,34,44.1,51,66.2,1.5,2,3.1,3.9,4.8,5.7,2.8,2.8,4.9,3.2,8.6,1.4,2.2-1.1,4.3-2.6,6.4-3.8,8.4-5,16.8-10,25.2-14.8,6.4-3.7,13.6-5.8,21-6.1,8.6-.4,17.3.2,25.9-1.1,6.5-1,13-1.9,19.2-3.9,13.1-4.1,21-13.1,23.3-26.5.9-5.3,2.7-10,5.3-14.5,1.3-2.3,2.7-4.8,3.1-7.4.3-2.3-.8-7-.5-11.2.2-3.3,1.9-6.1,1.9-7,.2-3.6.2-7.3,0-10.9-.4-8.1,2.1-9.2,8.4-8.6.2,0,.5,0,.7,0,.9,0,1.8,0,2.7,0,5.6.2,9.4-2.6,11.9-7.5,1.6-3.1,2.1-6.4,1.9-9.9Z"/>
</svg>
